<svg xmlns="http://www.w3.org/2000/svg" width="14.002" height="14.002" viewBox="0 0 14.002 14.002"><defs><style>.a{fill:#51bb7b;}</style></defs><g transform="translate(-1545.999 -52.749)"><path class="a" d="M1557,60.751a1.066,1.066,0,0,0-.113,0,.945.945,0,0,0-.887,1v1a2.006,2.006,0,0,1-2,2h-4a2.006,2.006,0,0,1-2-2v-4a2.006,2.006,0,0,1,2-2h1a1.085,1.085,0,0,0,.114,0,.944.944,0,0,0,.886-1,1.11,1.11,0,0,0,0-.114.945.945,0,0,0-1-.886h-1a4.012,4.012,0,0,0-4,4v4a4.013,4.013,0,0,0,4,4h4a4.012,4.012,0,0,0,4-4v-1a1.11,1.11,0,0,0,0-.114A.945.945,0,0,0,1557,60.751Z"/><path class="a" d="M1559.113,52.751a1.085,1.085,0,0,0-.114,0h-5a.946.946,0,0,0-1,.886,1.045,1.045,0,0,0,0,.114.945.945,0,0,0,.887,1,1.066,1.066,0,0,0,.113,0h2.694l-5.794,5.7a.967.967,0,0,0-.033,1.367l.033.033a.967.967,0,0,0,1.4,0l5.7-5.608v2.508a1,1,0,1,0,2,0v-5A.944.944,0,0,0,1559.113,52.751Z"/></g></svg>