<svg width="20" height="20" viewBox="0 0 20 20" fill="none" xmlns="http://www.w3.org/2000/svg">
<path d="M10 0C15.5228 0 20 4.47715 20 10C20 15.5228 15.5228 20 10 20C4.47715 20 0 15.5228 0 10C0 4.47715 4.47715 0 10 0ZM10 2C5.58172 2 2 5.58172 2 10C2 14.4183 5.58172 18 10 18C14.4183 18 18 14.4183 18 10C18 5.58172 14.4183 2 10 2ZM10 9C10.5523 9 11 9.44771 11 10V14.375C11 14.9273 10.5523 15.375 10 15.375C9.44771 15.375 9 14.9273 9 14.375V11H8.75C8.19771 11 7.75 10.5523 7.75 10C7.75 9.44771 8.19771 9 8.75 9H10ZM10 5C10.6904 5 11.25 5.55964 11.25 6.25C11.25 6.94036 10.6904 7.5 10 7.5C9.30964 7.5 8.75 6.94036 8.75 6.25C8.75 5.55964 9.30964 5 10 5Z" fill="#FAB889"/>
</svg>
