<svg width="20" height="20" viewBox="0 0 20 20" fill="none" xmlns="http://www.w3.org/2000/svg">
<path d="M10 0C15.5228 0 20 4.47715 20 10C20 15.5228 15.5228 20 10 20C4.47715 20 0 15.5228 0 10C0 4.47715 4.47715 0 10 0ZM10 2C5.58172 2 2 5.58172 2 10C2 14.4183 5.58172 18 10 18C14.4183 18 18 14.4183 18 10C18 5.58172 14.4183 2 10 2ZM13.3643 7.06152C13.757 6.74117 14.337 6.76392 14.7031 7.12988C15.0692 7.49601 15.0919 8.07598 14.7715 8.46875L14.7031 8.54395L9.5957 13.6514L9.52051 13.7207C9.12774 14.0409 8.54769 14.0174 8.18164 13.6514L5.66797 11.1377C5.27771 10.7471 5.27753 10.1131 5.66797 9.72266C6.05841 9.3327 6.69163 9.33265 7.08203 9.72266L8.88867 11.5303L13.2891 7.12988L13.3643 7.06152Z" fill="#D4EAD9"/>
</svg>
