<svg width="20" height="20" viewBox="0 0 20 20" fill="none" xmlns="http://www.w3.org/2000/svg">
<path d="M10 0C11.1162 0 11.8411 0.77711 12.2373 1.3125C12.59 1.78915 12.9408 2.43416 13.2637 3.02832C13.2826 3.06321 13.3015 3.09832 13.3203 3.13281L18.5869 12.8135C18.6073 12.8509 18.628 12.8882 18.6484 12.9258C19.0254 13.6181 19.4191 14.3407 19.6611 14.9736C19.9191 15.6483 20.2684 16.8885 19.6729 18.1777C19.0773 19.4668 18.0056 19.7899 17.3857 19.8984C16.8043 20.0002 16.0766 20.0003 15.3799 20H4.62012C3.92338 20.0003 3.19568 20.0002 2.61426 19.8984C1.99435 19.7899 0.9227 19.4668 0.327148 18.1777C-0.268334 16.8885 0.0809046 15.6483 0.338867 14.9736C0.580872 14.3407 0.974606 13.6181 1.35156 12.9258C1.37203 12.8882 1.39275 12.8509 1.41309 12.8135L6.67969 3.13281C6.69845 3.09833 6.71737 3.0632 6.73633 3.02832C7.05923 2.43417 7.40996 1.78916 7.7627 1.3125C8.1589 0.777119 8.88378 2.34949e-05 10 0ZM10 2.33203C9.46128 2.33207 9.08742 3.01938 8.33984 4.39355L3.07324 14.0742C2.21053 15.66 1.77898 16.4532 2.05957 17.0605C2.34016 17.6678 3.13817 17.668 4.7334 17.668H15.2666C16.8619 17.668 17.6598 17.6678 17.9404 17.0605C18.221 16.4532 17.7895 15.6601 16.9268 14.0742L11.6602 4.39355C10.9126 3.01937 10.5387 2.33203 10 2.33203ZM10.123 13.5518C10.7362 13.5518 11.2334 14.1387 11.2334 14.8633C11.2334 15.5878 10.7362 16.1748 10.123 16.1748C9.5101 16.1746 9.01372 15.5876 9.01367 14.8633C9.01367 14.1389 9.51007 13.552 10.123 13.5518ZM10.123 5.77637C10.6753 5.77637 11.123 6.22416 11.123 6.77637V11.4404C11.123 11.9927 10.6753 12.4404 10.123 12.4404C9.57093 12.4402 9.12305 11.9926 9.12305 11.4404V6.77637C9.12314 6.22428 9.57098 5.77656 10.123 5.77637Z" fill="#8E4402"/>
</svg>
