<svg width="18" height="18" viewBox="0 0 18 18" fill="none" xmlns="http://www.w3.org/2000/svg">
<path d="M9 0C4 0 0 3.93399 0 8.85149C0 13.769 4 17.703 9 17.703C14 17.703 18 13.769 18 8.85149C18 3.93399 14 0 9 0ZM9 15.736C5.1 15.736 2 12.6871 2 8.85149C2 5.01584 5.1 1.967 9 1.967C12.9 1.967 16 5.01584 16 8.85149C16 12.6871 12.9 15.736 9 15.736ZM9.8 12.097V12.4904C9.8 12.7855 9.6 12.9822 9.3 12.9822H8.8C8.5 12.9822 8.3 12.7855 8.3 12.4904V12.097C8.3 11.802 8.5 11.6053 8.8 11.6053H9.3C9.6 11.6053 9.8 11.802 9.8 12.097ZM9.8 5.21253L9.7 10.2284C9.7 10.5234 9.5 10.7201 9.2 10.7201H8.9C8.6 10.7201 8.4 10.4251 8.4 10.13L8.3 5.21253C8.3 4.91748 8.5 4.81914 8.8 4.81914H9.4C9.6 4.91749 9.8 4.91748 9.8 5.21253Z" fill="#EF4E65"/>
</svg>
