<svg width="77" height="58" viewBox="0 0 77 58" fill="none" xmlns="http://www.w3.org/2000/svg">
<g clip-path="url(#clip0)">
<path fill-rule="evenodd" clip-rule="evenodd" d="M4 12L4 46H49C50.8054 46.7222 50.8054 49.2778 49 50H4C1.79086 50 0 48.2091 0 46V4C0 1.79086 1.79086 0 4 0H31.1849C32.3384 0 33.4357 0.497922 34.1952 1.36598L39.7012 7.65851C39.8911 7.87552 40.1654 8 40.4538 8H66C68.2091 8 70 9.79086 70 12V22C69.2778 23.8054 66.7222 23.8054 66 22V12H4ZM34.6849 8H4V4H31.1849L34.6849 8Z" fill="white"/>
<path d="M56.2506 30.0181C53.8643 32.0777 52.0072 34.7337 50.9109 37.7546L43.4301 37.7453V37.7861H27.508C26.4727 37.7838 25.2159 37.7793 23.8458 37.7745L23.844 37.7745C21.2019 37.7652 18.1391 37.7544 15.4329 37.7544C15.079 37.7586 14.7362 37.6443 14.473 37.4342C14.2097 37.2242 14.0454 36.9339 14.0126 36.6212C13.9849 36.184 14.0028 35.7455 14.0663 35.3112C14.2752 33.965 14.9316 32.7046 15.9517 31.6909C16.9718 30.6772 18.3094 29.9564 19.7935 29.6203C20.8255 29.3819 21.9033 29.3441 22.9534 29.5093C23.1117 29.5306 23.2733 29.5226 23.428 29.4857C23.5826 29.4489 23.727 29.3841 23.8521 29.2953C23.9771 29.2065 24.08 29.0957 24.1544 28.9699C24.2288 28.844 24.273 28.7059 24.2842 28.5642C24.297 26.5406 25.1125 24.5856 26.5877 23.0422C28.0628 21.4988 30.1035 20.4656 32.3516 20.1238C34.5997 19.782 36.9117 20.1534 38.8819 21.173C40.8521 22.1926 42.3547 23.7951 43.1262 25.6995C43.1837 25.8432 43.2748 25.9746 43.3933 26.0852C43.5119 26.1957 43.6553 26.2829 43.8143 26.341C43.9733 26.3991 44.1443 26.4269 44.3162 26.4226C44.4881 26.4183 44.6571 26.3819 44.8121 26.3159C46.0039 25.802 47.315 25.5433 48.64 25.5608C49.965 25.5783 51.2669 25.8714 52.4409 26.4165C53.615 26.9617 54.6284 27.7437 55.3998 28.6997C55.734 29.1139 56.0187 29.5558 56.2506 30.0181Z" fill="white"/>
<path fill-rule="evenodd" clip-rule="evenodd" d="M58.8186 38.1497C60.1548 35.8415 62.6365 34.4951 65.3091 34.3027L64.7364 34.6874C63.7819 35.2645 63.4001 36.4186 63.9728 37.3803C64.3546 37.9574 64.9273 38.3421 65.6909 38.3421C66.0727 38.3421 66.2636 38.3421 66.6454 38.1497L69.318 36.5C69.1951 36.6275 69.8448 36.1773 70.4666 35.7375C71.1292 35.2689 71.5682 34.547 71.6794 33.743C71.7037 33.5671 71.727 33.3956 71.7465 33.246C71.7877 32.9295 71.7236 32.6159 71.5772 32.3323L69.318 27.9552C68.7453 26.9934 67.5999 26.8011 66.6454 27.1858C65.6909 27.7628 65.3091 28.9169 65.8818 29.8787L66.2636 30.4557C62.0638 30.2634 57.8641 32.1869 55.5733 36.2262C54.237 38.3421 53.8552 40.8426 54.0461 43.3432C54.237 44.3049 55.0006 45.0743 55.9551 45.0743H56.146C57.2914 44.882 58.055 43.9202 57.8641 42.9585C57.6732 41.2273 58.055 39.4962 58.8186 38.1497ZM71.9402 45.9245C70.6039 48.2327 68.1223 49.5792 65.4497 49.7715L66.0224 49.3868C66.9769 48.8098 67.3587 47.6557 66.786 46.6939C66.4042 46.1169 65.8315 45.7322 65.0679 45.7322C64.6861 45.7322 64.4952 45.7322 64.1134 45.9245L61.4408 47.5742C61.5637 47.4467 60.914 47.8969 60.2922 48.3367C59.6295 48.8053 59.1906 49.5273 59.0794 50.3312C59.0551 50.5071 59.0318 50.6786 59.0123 50.8283C58.9711 51.1448 59.0352 51.4583 59.1816 51.7419L61.4408 56.1191C62.0135 57.0808 63.1589 57.2732 64.1134 56.8885C65.0679 56.3114 65.4497 55.1573 64.877 54.1956L64.4952 53.6185C68.695 53.8109 72.8947 51.8874 75.1855 47.848C76.5218 45.7322 76.9036 43.2316 76.7127 40.7311C76.5218 39.7693 75.7582 38.9999 74.8037 38.9999H74.6128C73.4674 39.1923 72.7038 40.154 72.8947 41.1158C73.0856 42.8469 72.7038 44.5781 71.9402 45.9245Z" fill="#C3A028"/>
</g>
<defs>
<clipPath id="clip0">
<rect width="76.7588" height="57.0742" fill="white"/>
</clipPath>
</defs>
</svg>
